<?xml version="1.0" encoding="UTF-8"?>
<svg width="128" height="128" version="1.1" viewBox="0 0 33.867 33.867" xmlns="http://www.w3.org/2000/svg">
 <path transform="scale(.26458)" d="m64.002 11.791c-28.777 2.99e-4 -52.104 23.329-52.104 52.105 2.98e-4 28.776 23.328 52.103 52.104 52.104 28.777 7.8e-4 52.105-23.327 52.105-52.104 7.8e-4 -28.777-23.328-52.106-52.105-52.105zm26.691 22.237c2.8596-4.025 15.009 4.9847 11.447 9.6758l-37.492 56.869c-2.9088 3.13-9.1318 3.5472-13.227-0.0195l-23.562-20.406c-6.0431-5.3829 4.4683-17.683 9.5273-13.475l19.719 15.969 33.074-47.828c0.15325-0.18731 0.32298-0.51665 0.51338-0.78465z" stroke="#010000" stroke-linecap="square"/>
</svg>
