<?xml version="1.0" encoding="UTF-8"?>
<svg width="128" height="128" version="1.1" viewBox="0 0 33.867 33.867" xmlns="http://www.w3.org/2000/svg">
 <path transform="scale(.26458)" d="m24.088 14.75c-4.4337 0-8.002 3.5682-8.002 8.002v50.516c0 4.4337 3.5682 8.0039 8.002 8.0039h81.002c4.4337 0 8.0039-3.5702 8.0039-8.0039v-50.516c0-4.4337-3.5702-8.002-8.0039-8.002h-81.002zm4.3164 6.0625h71.824c3.6763 0 6.6348 2.9604 6.6348 6.6367v42.088c0 3.6763-2.9584 6.6348-6.6348 6.6348h-71.824c-3.6763 0-6.6367-2.9584-6.6367-6.6348v-42.088c0-3.6763 2.9604-6.6367 6.6367-6.6367zm-14.055 65.027c-3.6763 0-6.6348 2.9604-6.6348 6.6367v16.342c0 3.6763 2.9584 6.6348 6.6348 6.6348h101.06c3.6763 0 6.6367-2.9584 6.6367-6.6348v-16.342c0-3.6763-2.9604-6.6367-6.6367-6.6367h-101.06z" stroke="#000" stroke-width="1.8898"/>
</svg>
