<?xml version="1.0" encoding="UTF-8"?>
<svg width="128" height="128" version="1.1" viewBox="0 0 33.867 33.867" xmlns="http://www.w3.org/2000/svg">
 <path d="m7.7861 3.1231c-1.2396 0.047483-1.7283 1.4722-1.6816 2.5323h21.658c0.07522-1.1292-0.5538-2.6556-1.8915-2.5323h-18.085zm-1.6816 5.2377c0.019045 6.6016 0.014103 13.204 0.048145 19.805 0.08553 1.3663 1.6732 1.6407 2.7681 1.7642 3.8725 0.32542 7.7659 0.16298 11.648 0.19093 2.0446-0.07936 4.1716 0.0876 6.1311-0.60044 0.94109-0.30208 1.0938-1.3323 1.0249-2.1811 0.0125-6.3263 0.02501-12.653 0.03751-18.979h-21.658zm3.5336 0.99839c0.93374-0.043263 2.0801-0.03038 2.5507 0.94979 0.39105 0.93321 0.15285 1.9791 0.21862 2.9671-0.0062 4.1912 0.01246 8.383-0.0093 12.574-0.0761 1.1366-1.2497 1.7884-2.2975 1.6311-1.0405 0.15303-2.1951-0.50848-2.2706-1.6311-0.015544-4.9527-0.015613-9.907 0-14.86 0.073644-0.90519 0.8999-1.6504 1.8081-1.6311zm6.9712 0c0.93374-0.043263 2.0801-0.03038 2.5507 0.94979 0.39105 0.93321 0.15285 1.9791 0.21862 2.9671-0.0062 4.1912 0.01246 8.383-0.0093 12.574-0.0761 1.1366-1.2497 1.7884-2.2975 1.6311-1.0405 0.15303-2.1951-0.50848-2.2706-1.6311-0.01554-4.9527-0.01561-9.907 0-14.86 0.07364-0.90519 0.8999-1.6504 1.8081-1.6311zm6.6668 0c0.87838-0.030799 1.9399-0.061397 2.4603 0.79997 0.5378 0.84982 0.22693 1.8932 0.30957 2.8371-0.0062 4.2846 0.01241 8.5698-0.0093 12.854-0.07521 1.0962-1.1983 1.7862-2.2281 1.6309-0.99357 0.13597-2.1326-0.37332-2.3128-1.4501-0.08362-2.3574-0.0137-4.7245-0.03669-7.0857 0.0066-2.6525-0.01311-5.3058 0.0098-7.9579 0.07586-0.90857 0.89909-1.6431 1.8071-1.6283z" stroke="#000" stroke-width=".26458px"/>
</svg>
