<?xml version="1.0" encoding="UTF-8"?>
<svg width="128" height="128" version="1.1" viewBox="0 0 33.867 33.867" xmlns="http://www.w3.org/2000/svg">
 <path transform="scale(.26458)" d="m64.002 11.791a52.104 52.104 0 0 0-52.104 52.105 52.104 52.104 0 0 0 52.104 52.104 52.104 52.104 0 0 0 52.105-52.104 52.104 52.104 0 0 0-52.105-52.105zm0.47461 10.785a41.045 41.045 0 0 1 41.045 41.045 41.045 41.045 0 0 1-7.7031 23.928l-57.262-57.262a41.045 41.045 0 0 1 23.92-7.7109zm-33.176 16.883 57.332 57.332a41.045 41.045 0 0 1-24.156 7.875 41.045 41.045 0 0 1-41.045-41.045 41.045 41.045 0 0 1 7.8691-24.162z" stroke="#010000" stroke-linecap="square"/>
</svg>
