<?xml version="1.0" encoding="UTF-8"?>
<svg width="128" height="128" version="1.1" viewBox="0 0 33.867 33.867" xmlns="http://www.w3.org/2000/svg">
 <path d="m26.424 4.8028a9.7806 9.7806 0 0 0-13.775 1.2581 9.7806 9.7806 0 0 0-0.05535 12.438c-0.06504 0.05687-0.12658 0.1196-0.1837 0.18819l-7.715 9.2659c-0.58186 0.69883-0.48768 1.73 0.21115 2.3119l0.44545 0.37089c0.69883 0.58186 1.73 0.48768 2.3119-0.21115l7.715-9.2659c0.06087-0.07311 0.11369-0.1503 0.15985-0.22979a9.7806 9.7806 0 0 0 12.144-2.3516 9.7806 9.7806 0 0 0-1.2581-13.775zm-1.8004 2.2325a6.7986 6.7986 0 0 1 0.8741 9.575 6.7986 6.7986 0 0 1-9.5746 0.87446 6.7986 6.7986 0 0 1-0.87446-9.5746 6.7986 6.7986 0 0 1 9.575-0.87491z" stroke="#010000" stroke-linecap="square" stroke-width=".29501"/>
</svg>
