<?xml version="1.0" encoding="UTF-8"?>
<svg width="128" height="128" version="1.1" viewBox="0 0 33.867 33.867" xmlns="http://www.w3.org/2000/svg">
 <g stroke="#010000" stroke-linecap="round" stroke-linejoin="round">
  <path d="m8.7126 4.0809c-0.7137 0-1.2879 0.65669-1.2879 1.4723v0.55398c0 0.81558 0.57421 1.4723 1.2879 1.4723h16.442c0.7137 0 1.2879-0.65669 1.2879-1.4723v-0.55398c0-0.81558-0.57421-1.4723-1.2879-1.4723h-8.2209zm0.71269 4.4757c-0.41225 0-0.82886 0.3887-0.74345 0.84957 0.25193 1.3594 0.72148 2.335 1.169 3.6541 0.53753 1.5845 1.6587 2.9241 3.0149 3.8732-1.3563 0.94912-2.4774 2.2866-3.0149 3.8711-0.4475 1.3191-0.91705 2.2952-1.169 3.6546-0.085409 0.46087 0.3312 0.85112 0.74345 0.85112 0.41225 0 0.6715-0.38763 0.74525-0.85112 0.27492-1.7278 0.74585-2.9775 1.3264-4.0199 0.52865-0.94936 2.0265-2.8264 3.2505-3.5058-1.2241-0.67932-2.7219-2.5585-3.2505-3.5078-0.5805-1.0425-1.0514-2.2917-1.3264-4.0194-0.07375-0.46349-0.33301-0.84957-0.74525-0.84957zm15.016 0c-0.41225 0-0.67105 0.38608-0.7448 0.84957-0.27492 1.7278-0.74585 2.977-1.3264 4.0194-0.52866 0.94936-2.0269 2.8285-3.251 3.5078 1.2241 0.67932 2.7223 2.5564 3.251 3.5058 0.5805 1.0425 1.0514 2.2922 1.3264 4.0199 0.07375 0.46349 0.33256 0.85112 0.7448 0.85112 0.41224 0 0.82931-0.39025 0.7439-0.85112-0.25193-1.3594-0.72193-2.3355-1.1694-3.6546-0.53753-1.5845-1.6587-2.922-3.0149-3.8711 1.3563-0.94912 2.4774-2.2887 3.0149-3.8732 0.4475-1.3191 0.9175-2.2947 1.1694-3.6541 0.08541-0.46087-0.33165-0.84957-0.7439-0.84957zm-7.4291 10.407c-1.5622 0.01772-2.9751 0.20711-3.3657 0.65617-1.9584 2.2512-1.6938 2.3225-2.5157 5.2408h11.605c-0.62333-2.9532-0.31455-2.7734-2.3491-5.0572-0.39592-0.44441-2.1237-0.85405-3.3747-0.83986zm-8.2999 7.3241c-0.7137 0-1.2879 0.65669-1.2879 1.4723v0.55398c0 0.81558 0.57421 1.4723 1.2879 1.4723h16.442c0.7137 0 1.2879-0.6567 1.2879-1.4723v-0.55398c0-0.81558-0.57421-1.4723-1.2879-1.4723h-8.2209z" stroke-width=".2797"/>
  <ellipse cx="17.037" cy="17.369" rx="1.4061" ry="1.0532" stroke-width=".39059"/>
  <ellipse cx="18.637" cy="14.914" rx="1.0009" ry=".84709" stroke-width=".29554"/>
  <ellipse cx="15.142" cy="14.927" rx=".66941" ry=".6436" stroke-width=".21067"/>
 </g>
</svg>
