<?xml version="1.0" encoding="UTF-8"?>
<svg width="128" height="128" version="1.1" viewBox="0 0 33.867 33.867" xmlns="http://www.w3.org/2000/svg">
 <path d="m8.7126 4.0809c-0.7137 0-1.2879 0.65669-1.2879 1.4723v0.55398c0 0.81558 0.57421 1.4723 1.2879 1.4723h16.442c0.7137 0 1.2879-0.65669 1.2879-1.4723v-0.55398c0-0.81558-0.57421-1.4723-1.2879-1.4723h-8.2209zm0.71269 4.4757c-0.41225 0-0.82886 0.3887-0.74345 0.84957 0.25193 1.3594 0.72148 2.335 1.169 3.6541 0.53753 1.5845 1.6587 2.9241 3.0149 3.8732-1.3563 0.94912-2.4774 2.2866-3.0149 3.8711-0.4475 1.3191-0.91705 2.2952-1.169 3.6546-0.085409 0.46087 0.3312 0.85112 0.74345 0.85112 0.41225 0 0.6715-0.38763 0.74525-0.85112 0.27492-1.7278 0.74585-2.9775 1.3264-4.0199 0.52865-0.94936 2.0265-2.8264 3.2505-3.5058-1.2241-0.67932-2.7219-2.5585-3.2505-3.5078-0.5805-1.0425-1.0514-2.2917-1.3264-4.0194-0.07375-0.46349-0.33301-0.84957-0.74525-0.84957zm15.016 0c-0.41225 0-0.67105 0.38608-0.7448 0.84957-0.27492 1.7278-0.74585 2.977-1.3264 4.0194-0.52866 0.94936-2.0269 2.8285-3.251 3.5078 1.2241 0.67932 2.7223 2.5564 3.251 3.5058 0.5805 1.0425 1.0514 2.2922 1.3264 4.0199 0.07375 0.46349 0.33256 0.85112 0.7448 0.85112 0.41224 0 0.82931-0.39025 0.7439-0.85112-0.25193-1.3594-0.72193-2.3355-1.1694-3.6546-0.53753-1.5845-1.6587-2.922-3.0149-3.8711 1.3563-0.94912 2.4774-2.2887 3.0149-3.8732 0.4475-1.3191 0.9175-2.2947 1.1694-3.6541 0.08541-0.46087-0.33165-0.84957-0.7439-0.84957zm-7.5082 8.3768c-0.61957 0-1.1296 0.22999-1.6081 0.58395-2.7933 2.0663-3.6633 4.3634-4.1943 7.343h11.605c-0.53103-2.9796-1.401-5.2767-4.1943-7.343-0.4785-0.35396-0.98897-0.58395-1.6085-0.58395zm-8.2209 9.354c-0.7137 0-1.2879 0.65669-1.2879 1.4723v0.55398c0 0.81558 0.57421 1.4723 1.2879 1.4723h16.442c0.7137 0 1.2879-0.6567 1.2879-1.4723v-0.55398c0-0.81558-0.57421-1.4723-1.2879-1.4723h-8.2209z" stroke="#010000" stroke-linecap="round" stroke-linejoin="round" stroke-width=".2797"/>
</svg>
