<?xml version="1.0" encoding="UTF-8"?>
<svg width="128" height="128" version="1.1" viewBox="0 0 33.867 33.867" xmlns="http://www.w3.org/2000/svg">
 <path d="m23.434 1.9582c-4.239 5e-7 -7.6752 3.4362-7.6752 7.6752 0 0.52988 0.05372 1.0473 0.15596 1.5469 0.10224 0.49965 0.25275 0.98145 0.44695 1.4406 0.1942 0.45914-13.631 16.484-13.657 16.976-0.083928 1.5509-0.055712 2.3383 0.29153 2.6855 0.34724 0.34725 0.97503-1.3145 2.1614-5.5e-4 0.33025 0.36575 0.94948-4.0879 5.1126-5.1374 0.12085-0.03046 1.2532-2.7781 1.2532-2.7781l4.5477-2.2028 1.521-3.3397c-0.18165-0.05652 1.9934-2.1791 4.2953-1.6709 0.49801 0.10994 1.0171 0.15596 1.5469 0.15596 4.239 0 7.6752-3.4362 7.6752-7.6752 0-4.239-3.4362-7.6752-7.6752-7.6752zm2.3819 2.8255a2.398 2.398 0 0 1 2.3979 2.3979 2.398 2.398 0 0 1-2.3979 2.3979 2.398 2.398 0 0 1-2.3979-2.3979 2.398 2.398 0 0 1 2.3979-2.3979z" stroke="#000" stroke-width=".58665"/>
</svg>
