<?xml version="1.0" encoding="UTF-8"?>
<svg width="128" height="128" version="1.1" viewBox="0 0 33.867 33.867" xmlns="http://www.w3.org/2000/svg">
 <path transform="scale(.26458)" d="m64 14.051c-14.773 14.059-29.597 8.3711-44 8.3711l4.332 41.578c5.5194 45.741 29.207 40.543 39.668 52 10.461-11.457 34.149-6.2593 39.668-52l4.332-41.578c-14.403 0-29.227 5.6874-44-8.3711zm0.44922 11.779c7.6581 0 13.865 6.2071 13.865 13.865 0 6.2616-4.1498 11.555-9.8496 13.277l0.072265 37.729h7.1113v7.8906h-7.1016l0.009766 5.6914h-8.2168l0.09375-51.311c-5.6999-1.7219-9.8516-7.0157-9.8516-13.277 0-7.6581 6.2091-13.865 13.867-13.865z" stroke="#000" stroke-width="1px"/>
</svg>
