<?xml version="1.0" encoding="UTF-8"?>
<svg width="128" height="128" version="1.1" viewBox="0 0 33.867 33.867" xmlns="http://www.w3.org/2000/svg">
 <path d="m16.979 1.0826c-1.2577 3.5029-7.5464 7.8913-16.979 4.3883-3.24e-7 28.126 12.577 23.437 16.979 28.065 4.4021-4.6281 16.979 0.061213 16.979-28.065-9.433 3.5029-15.722-0.88539-16.979-4.3883zm-0.04606 7.3841c2.8957 2.459e-4 5.2429 2.1415 5.2428 4.7827 6.4e-5 2.364-1.6256 4.1166-4.3511 4.7137v4.6605h3.0997v1.6797l-3.0997-0.01089v2.1098l1.7726-0.0051v1.6288h-3.5619v-10.064c-2.4683-0.38832-4.3459-2.3506-4.3458-4.7129-6.9e-5 -2.6414 2.3475-4.7828 5.2434-4.7827zm-0.03624 1.4738c-2.0412-3.97e-5 -3.6959 1.5093-3.6958 3.3711 2.96e-4 1.8616 1.6549 3.3706 3.6958 3.3705 2.0409 4e-5 3.6955-1.5089 3.6958-3.3705 4.3e-5 -1.8618-1.6547-3.3711-3.6958-3.3711z" fill="#000a00" stroke="#000" stroke-width=".3003px"/>
</svg>
