<?xml version="1.0" encoding="UTF-8"?>
<svg width="20" height="20" version="1.1" viewBox="0 0 20 20" xmlns="http://www.w3.org/2000/svg">
 <path d="m10.012 1.2451-0.42335 0.064628-1.5145 1.3403s-0.46918 0.85264-0.61036 0.91013c-0.14118 0.057487-0.22272 0.64984-0.22272 0.64984l-0.70537 0.96794-1.0969 2.2961 0.04357 0.85795 0.8249 1.0548-0.74139 0.38332-0.92628-0.05336-1.2001 0.68897-0.31108 0.73403-1.7264 2.0251-0.73866 1.2256-0.66301 5.6096c6.9464 0.01064 12.743 0.01051 19.832 0l-0.0817-2.8098-1.7569-5.033-1.2065-1.5849-0.49627-0.44143-2.1884-0.89056 0.19669-0.6611 0.08503-0.44854-0.8827-2.5303-0.44665-0.50487-0.63244-1.6412-0.72928-0.81556-0.29776-0.64332zm0.57768 4.6645 1.9678 0.88256 0.55437 0.35901-0.39762 2.1081-1.005 1.6652-1.3838 0.92317-1.1705-0.47137-1.3829-1.3931-1.1393-1.994-0.08443-1.1049 2.2795-0.78295zm-6.3333 8.6115h11.328l-0.31044 5.4789h-10.702z" stroke="#000" stroke-width=".15634px"/>
</svg>
