<?xml version="1.0" encoding="UTF-8"?>
<svg width="32" height="32" version="1.1" viewBox="0 0 32 32" xmlns="http://www.w3.org/2000/svg">
 <path d="m16.155 1.7373-0.6831 0.10428-2.4438 2.1627s-0.75706 1.3758-0.98486 1.4686c-0.2278 0.09276-0.35938 1.0486-0.35938 1.0486l-1.1382 1.5619-1.77 3.7049 0.070311 1.3844 1.3311 1.702-1.1963 0.61852-1.4946-0.086106-1.9365 1.1117-0.50195 1.1844-2.7856 3.2677-1.1919 1.9776-1.0698 9.0516c11.209 0.01717 20.562 0.01696 32 0l-0.13184-4.5339-2.835-8.1212-1.9468-2.5573-0.80078-0.71228-3.5312-1.437 0.31738-1.0667 0.13721-0.72376-1.4243-4.0828-0.7207-0.81465-1.0205-2.6482-1.1768-1.316-0.48047-1.038zm0.93213 7.5266 3.1753 1.4241 0.89453 0.5793-0.6416 3.4016-1.6216 2.687-2.2329 1.4896-1.8887-0.7606-2.2314-2.2478-1.8384-3.2175-0.13623-1.7829 3.6782-1.2634zm-10.219 13.895h18.278l-0.50092 8.8406h-17.269z" stroke="#000" stroke-width=".25226px"/>
</svg>
