<?xml version="1.0" encoding="UTF-8"?>
<svg width="128" height="128" version="1.1" viewBox="0 0 128 128" xmlns="http://www.w3.org/2000/svg">
 <path d="m64.619 4.4395-2.7324 0.42578-9.7754 8.8301c0 1e-6 -3.0282 5.6174-3.9395 5.9961-0.9112 0.37874-1.4375 4.2812-1.4375 4.2812l-4.5527 6.377-7.0801 15.127 0.28125 5.6523 5.3242 6.9492-4.7852 2.5254-5.9785-0.35156-7.7461 4.5391-2.0078 4.8359-11.143 13.342-4.7676 8.0742-4.2793 36.957c44.835 0.0701 82.248 0.0692 128 0l-0.52734-18.512-11.34-33.158-7.7871-10.441-3.2031-2.9082-14.125-5.8672 1.2695-4.3555 0.54883-2.9551-5.6973-16.67-2.8828-3.3262-4.082-10.812-4.707-5.373-1.9219-4.2383zm3.7285 30.73 12.701 5.8145 3.5781 2.3652-2.5664 13.889-6.4863 10.971-8.9316 6.082-7.5547-3.1055-8.9258-9.1777-7.3535-13.137-0.54492-7.2793 14.713-5.1582zm-40.878 56.734h73.112l-2.0037 36.096h-69.074z" stroke="#000" stroke-width="1.0195px"/>
</svg>
